{
  "accessors": [
    {
      "bufferView": 2,
      "componentType": 5126,
      "count": 1505,
      "max": [
        999.13067626953125,
        999.13067626953125,
        -6.6471977233886719
      ],
      "min": [
        -999.13067626953125,
        -999.13067626953125,
        -81.1539306640625
      ],
      "type": "VEC3"
    },
    {
      "bufferView": 2,
      "byteOffset": 18060,
      "componentType": 5126,
      "count": 1505,
      "max": [
        0.76458680629730225,
        0.71352690458297729,
        1
      ],
      "min": [
        -0.73292750120162964,
        -0.74463862180709839,
        0.62661057710647583
      ],
      "type": "VEC3"
    },
    {
      "bufferView": 3,
      "componentType": 5126,
      "count": 1505,
      "max": [
        1,
        0.051911145448684692,
        0.74447882175445557,
        1
      ],
      "min": [
        0.6339077353477478,
        -0.042462393641471863,
        -0.77340859174728394,
        1
      ],
      "type": "VEC4"
    },
    {
      "bufferView": 1,
      "componentType": 5126,
      "count": 1505,
      "max": [
        1,
        1
      ],
      "min": [
        0,
        0
      ],
      "type": "VEC2"
    },
    {
      "bufferView": 0,
      "componentType": 5125,
      "count": 8652,
      "max": [
        1504
      ],
      "min": [
        0
      ],
      "type": "SCALAR"
    },
    {
      "bufferView": 2,
      "byteOffset": 36120,
      "componentType": 5126,
      "count": 260,
      "max": [
        999.13067626953125,
        999.13067626953125,
        -10.42491340637207
      ],
      "min": [
        -999.13067626953125,
        -999.13067626953125,
        -187.66932678222656
      ],
      "type": "VEC3"
    },
    {
      "bufferView": 2,
      "byteOffset": 39240,
      "componentType": 5126,
      "count": 260,
      "max": [
        1,
        1,
        0
      ],
      "min": [
        -1,
        -1,
        -1
      ],
      "type": "VEC3"
    },
    {
      "bufferView": 3,
      "byteOffset": 24080,
      "componentType": 5126,
      "count": 260,
      "max": [
        1,
        1,
        1.1354772055938156e-07,
        1
      ],
      "min": [
        -1,
        -1,
        -4.082777493863432e-08,
        1
      ],
      "type": "VEC4"
    },
    {
      "bufferView": 1,
      "byteOffset": 12040,
      "componentType": 5126,
      "count": 260,
      "max": [
        49957.046875,
        49957.046875
      ],
      "min": [
        -49956.046875,
        -49956.046875
      ],
      "type": "VEC2"
    },
    {
      "bufferView": 0,
      "byteOffset": 34608,
      "componentType": 5125,
      "count": 750,
      "max": [
        259
      ],
      "min": [
        0
      ],
      "type": "SCALAR"
    }
  ],
  "asset": {
    "extras": {
      "author": "SebastianSosnowski (https://sketchfab.com/SebastianSosnowski)",
      "license": "CC-BY-4.0 (http://creativecommons.org/licenses/by/4.0/)",
      "source": "https://sketchfab.com/3d-models/moon-hansteen-billy-craters-8cabad3515ac49e19ae4dfe5c4534319",
      "title": "Moon - Hansteen & Billy craters"
    },
    "generator": "Sketchfab-5.13.1",
    "version": "2.0"
  },
  "bufferViews": [
    {
      "buffer": 0,
      "byteLength": 37608,
      "byteOffset": 0,
      "name": "floatBufferViews",
      "target": 34963
    },
    {
      "buffer": 0,
      "byteLength": 14120,
      "byteOffset": 37608,
      "byteStride": 8,
      "name": "floatBufferViews",
      "target": 34962
    },
    {
      "buffer": 0,
      "byteLength": 42360,
      "byteOffset": 51728,
      "byteStride": 12,
      "name": "floatBufferViews",
      "target": 34962
    },
    {
      "buffer": 0,
      "byteLength": 28240,
      "byteOffset": 94088,
      "byteStride": 16,
      "name": "floatBufferViews",
      "target": 34962
    }
  ],
  "buffers": [
    {
      "byteLength": 122328,
      "uri": "scene.bin"
    }
  ],
  "images": [
    {
      "uri": "textures/material_1_normal.png"
    },
    {
      "uri": "textures/material_1_baseColor.jpeg"
    },
    {
      "uri": "textures/material_1_metallicRoughness.png"
    }
  ],
  "materials": [
    {
      "doubleSided": true,
      "emissiveFactor": [
        0,
        0,
        0
      ],
      "name": "material_1",
      "normalTexture": {
        "index": 0,
        "scale": 1,
        "texCoord": 0
      },
      "pbrMetallicRoughness": {
        "baseColorFactor": [
          1,
          1,
          1,
          1
        ],
        "baseColorTexture": {
          "index": 1,
          "texCoord": 0
        },
        "metallicFactor": 0.66634908540000004,
        "metallicRoughnessTexture": {
          "index": 2,
          "texCoord": 0
        },
        "roughnessFactor": 1
      }
    },
    {
      "doubleSided": false,
      "name": "material",
      "pbrMetallicRoughness": {
        "baseColorFactor": [
          0.011750637499999999,
          0.0115846348,
          0.0115846348,
          1
        ],
        "metallicFactor": 1,
        "roughnessFactor": 0
      }
    }
  ],
  "meshes": [
    {
      "name": "Moon_1_0",
      "primitives": [
        {
          "attributes": {
            "NORMAL": 1,
            "POSITION": 0,
            "TANGENT": 2,
            "TEXCOORD_0": 3
          },
          "indices": 4,
          "material": 0,
          "mode": 4
        }
      ]
    },
    {
      "name": "Moon_2_0",
      "primitives": [
        {
          "attributes": {
            "NORMAL": 6,
            "POSITION": 5,
            "TANGENT": 7,
            "TEXCOORD_0": 8
          },
          "indices": 9,
          "material": 1,
          "mode": 4
        }
      ]
    }
  ],
  "nodes": [
    {
      "children": [
        1
      ],
      "name": "RootNode (gltf orientation matrix)",
      "rotation": [
        -0.70710678118654746,
        -0,
        -0,
        0.70710678118654757
      ]
    },
    {
      "children": [
        2
      ],
      "name": "RootNode (model correction matrix)"
    },
    {
      "children": [
        3
      ],
      "matrix": [
        1,
        0,
        0,
        0,
        0,
        0,
        1,
        0,
        0,
        -1,
        0,
        0,
        0,
        0,
        0,
        1
      ],
      "name": "62b1cc5a7c8a4e7e9a305760a9f2acb9.fbx"
    },
    {
      "children": [
        4
      ],
      "name": "RootNode"
    },
    {
      "children": [
        5,
        6
      ],
      "matrix": [
        1,
        0,
        0,
        0,
        0,
        2.2204460492503131e-16,
        -1,
        0,
        0,
        1,
        2.2204460492503131e-16,
        0,
        0,
        0,
        0,
        1
      ],
      "name": "Moon"
    },
    {
      "mesh": 0,
      "name": "Moon_1_0"
    },
    {
      "mesh": 1,
      "name": "Moon_2_0"
    }
  ],
  "samplers": [
    {
      "magFilter": 9729,
      "minFilter": 9987,
      "wrapS": 10497,
      "wrapT": 10497
    }
  ],
  "scene": 0,
  "scenes": [
    {
      "name": "OSG_Scene",
      "nodes": [
        0
      ]
    }
  ],
  "textures": [
    {
      "sampler": 0,
      "source": 0
    },
    {
      "sampler": 0,
      "source": 1
    },
    {
      "sampler": 0,
      "source": 2
    }
  ]
}

