{
  "accessors": [
    {
      "bufferView": 2,
      "componentType": 5126,
      "count": 65532,
      "max": [
        14.580472946166992,
        12.792976379394531,
        5.6259746551513672
      ],
      "min": [
        -11.281693458557129,
        -13.044205665588379,
        -2.9687519073486328
      ],
      "type": "VEC3"
    },
    {
      "bufferView": 2,
      "byteOffset": 786384,
      "componentType": 5126,
      "count": 65532,
      "max": [
        0.9998936653137207,
        0.99979704618453979,
        0.99999994039535522
      ],
      "min": [
        -0.99997895956039429,
        -0.99977350234985352,
        -0.99978876113891602
      ],
      "type": "VEC3"
    },
    {
      "bufferView": 1,
      "componentType": 5126,
      "count": 65532,
      "max": [
        0.99714183807373047,
        0.99672448635101318
      ],
      "min": [
        0.002768123522400856,
        0.0027679884806275368
      ],
      "type": "VEC2"
    },
    {
      "bufferView": 0,
      "componentType": 5125,
      "count": 97722,
      "max": [
        65531
      ],
      "min": [
        0
      ],
      "type": "SCALAR"
    },
    {
      "bufferView": 2,
      "byteOffset": 1572768,
      "componentType": 5126,
      "count": 65532,
      "max": [
        0.43056440353393555,
        9.0854101181030273,
        4.0853757858276367
      ],
      "min": [
        -11.146238327026367,
        -8.771697998046875,
        -2.3812885284423828
      ],
      "type": "VEC3"
    },
    {
      "bufferView": 2,
      "byteOffset": 2359152,
      "componentType": 5126,
      "count": 65532,
      "max": [
        0.99999934434890747,
        0.99991774559020996,
        0.99999934434890747
      ],
      "min": [
        -0.9999997615814209,
        -0.99998140335083008,
        -0.94884485006332397
      ],
      "type": "VEC3"
    },
    {
      "bufferView": 1,
      "byteOffset": 524256,
      "componentType": 5126,
      "count": 65532,
      "max": [
        0.99716413021087646,
        0.99354618787765503
      ],
      "min": [
        0.0027750823646783829,
        0.0028332690708339214
      ],
      "type": "VEC2"
    },
    {
      "bufferView": 0,
      "byteOffset": 390888,
      "componentType": 5125,
      "count": 98298,
      "max": [
        65531
      ],
      "min": [
        0
      ],
      "type": "SCALAR"
    },
    {
      "bufferView": 2,
      "byteOffset": 3145536,
      "componentType": 5126,
      "count": 65534,
      "max": [
        14.451311111450195,
        12.627245903015137,
        5.6522159576416016
      ],
      "min": [
        -11.150968551635742,
        -12.932529449462891,
        -2.919952392578125
      ],
      "type": "VEC3"
    },
    {
      "bufferView": 2,
      "byteOffset": 3931944,
      "componentType": 5126,
      "count": 65534,
      "max": [
        0.99998259544372559,
        0.99996668100357056,
        0.99999898672103882
      ],
      "min": [
        -0.99998021125793457,
        -0.99995577335357666,
        -0.98839849233627319
      ],
      "type": "VEC3"
    },
    {
      "bufferView": 1,
      "byteOffset": 1048512,
      "componentType": 5126,
      "count": 65534,
      "max": [
        0.99716651439666748,
        0.99683296680450439
      ],
      "min": [
        0.0027696453034877777,
        0.0028501828201115131
      ],
      "type": "VEC2"
    },
    {
      "bufferView": 0,
      "byteOffset": 784080,
      "componentType": 5125,
      "count": 98298,
      "max": [
        65533
      ],
      "min": [
        0
      ],
      "type": "SCALAR"
    },
    {
      "bufferView": 2,
      "byteOffset": 4718352,
      "componentType": 5126,
      "count": 65534,
      "max": [
        14.139782905578613,
        9.1293849945068359,
        3.7155704498291016
      ],
      "min": [
        -4.4766263961791992,
        -12.87339973449707,
        -2.3670406341552734
      ],
      "type": "VEC3"
    },
    {
      "bufferView": 2,
      "byteOffset": 5504760,
      "componentType": 5126,
      "count": 65534,
      "max": [
        0.9945799708366394,
        0.99977445602416992,
        0.99999940395355225
      ],
      "min": [
        -0.99999505281448364,
        -0.99996381998062134,
        -0.98081934452056885
      ],
      "type": "VEC3"
    },
    {
      "bufferView": 1,
      "byteOffset": 1572784,
      "componentType": 5126,
      "count": 65534,
      "max": [
        0.99704277515411377,
        0.99681591987609863
      ],
      "min": [
        0.0027700199279934168,
        0.0027698683552443981
      ],
      "type": "VEC2"
    },
    {
      "bufferView": 0,
      "byteOffset": 1177272,
      "componentType": 5125,
      "count": 98298,
      "max": [
        65533
      ],
      "min": [
        0
      ],
      "type": "SCALAR"
    },
    {
      "bufferView": 2,
      "byteOffset": 6291168,
      "componentType": 5126,
      "count": 11254,
      "max": [
        14.580472946166992,
        11.41706657409668,
        4.8340244293212891
      ],
      "min": [
        -11.267117500305176,
        -12.823586463928223,
        -2.8446521759033203
      ],
      "type": "VEC3"
    },
    {
      "bufferView": 2,
      "byteOffset": 6426216,
      "componentType": 5126,
      "count": 11254,
      "max": [
        0.99248713254928589,
        0.99998784065246582,
        1
      ],
      "min": [
        -0.99993926286697388,
        -0.99874496459960938,
        -0.98049581050872803
      ],
      "type": "VEC3"
    },
    {
      "bufferView": 1,
      "byteOffset": 2097056,
      "componentType": 5126,
      "count": 11254,
      "max": [
        0.99713534116744995,
        0.99437439441680908
      ],
      "min": [
        0.0027667696122080088,
        0.002765357494354248
      ],
      "type": "VEC2"
    },
    {
      "bufferView": 0,
      "byteOffset": 1570464,
      "componentType": 5125,
      "count": 16881,
      "max": [
        11253
      ],
      "min": [
        0
      ],
      "type": "SCALAR"
    }
  ],
  "asset": {
    "extras": {
      "author": "GSXNet (https://sketchfab.com/gsxn)",
      "license": "CC-BY-4.0 (http://creativecommons.org/licenses/by/4.0/)",
      "source": "https://sketchfab.com/3d-models/ellora-caves-india-1a5ec1e212f9451e80dc051e97164d17",
      "title": "Ellora Caves | India"
    },
    "generator": "Sketchfab-7.61.0",
    "version": "2.0"
  },
  "bufferViews": [
    {
      "buffer": 0,
      "byteLength": 1637988,
      "byteOffset": 0,
      "name": "floatBufferViews",
      "target": 34963
    },
    {
      "buffer": 0,
      "byteLength": 2187088,
      "byteOffset": 1637988,
      "byteStride": 8,
      "name": "floatBufferViews",
      "target": 34962
    },
    {
      "buffer": 0,
      "byteLength": 6561264,
      "byteOffset": 3825076,
      "byteStride": 12,
      "name": "floatBufferViews",
      "target": 34962
    }
  ],
  "buffers": [
    {
      "byteLength": 10386340,
      "uri": "scene.bin"
    }
  ],
  "extensionsUsed": [
    "KHR_materials_unlit"
  ],
  "images": [
    {
      "uri": "textures/material_baseColor.jpeg"
    }
  ],
  "materials": [
    {
      "doubleSided": true,
      "emissiveFactor": [
        0,
        0,
        0
      ],
      "extensions": {
        "KHR_materials_unlit": {}
      },
      "name": "material",
      "pbrMetallicRoughness": {
        "baseColorFactor": [
          1,
          1,
          1,
          1
        ],
        "baseColorTexture": {
          "index": 0,
          "texCoord": 0
        },
        "metallicFactor": 0,
        "roughnessFactor": 1
      }
    }
  ],
  "meshes": [
    {
      "name": "Retopo_Model_Tex_0",
      "primitives": [
        {
          "attributes": {
            "NORMAL": 1,
            "POSITION": 0,
            "TEXCOORD_0": 2
          },
          "indices": 3,
          "material": 0,
          "mode": 4
        }
      ]
    },
    {
      "name": "Retopo_Model_Tex_0",
      "primitives": [
        {
          "attributes": {
            "NORMAL": 5,
            "POSITION": 4,
            "TEXCOORD_0": 6
          },
          "indices": 7,
          "material": 0,
          "mode": 4
        }
      ]
    },
    {
      "name": "Retopo_Model_Tex_0",
      "primitives": [
        {
          "attributes": {
            "NORMAL": 9,
            "POSITION": 8,
            "TEXCOORD_0": 10
          },
          "indices": 11,
          "material": 0,
          "mode": 4
        }
      ]
    },
    {
      "name": "Retopo_Model_Tex_0",
      "primitives": [
        {
          "attributes": {
            "NORMAL": 13,
            "POSITION": 12,
            "TEXCOORD_0": 14
          },
          "indices": 15,
          "material": 0,
          "mode": 4
        }
      ]
    },
    {
      "name": "Retopo_Model_Tex_0",
      "primitives": [
        {
          "attributes": {
            "NORMAL": 17,
            "POSITION": 16,
            "TEXCOORD_0": 18
          },
          "indices": 19,
          "material": 0,
          "mode": 4
        }
      ]
    }
  ],
  "nodes": [
    {
      "children": [
        1
      ],
      "name": "RootNode (gltf orientation matrix)",
      "rotation": [
        -0.70710678118654746,
        -0,
        -0,
        0.70710678118654757
      ]
    },
    {
      "children": [
        2
      ],
      "name": "RootNode (model correction matrix)"
    },
    {
      "children": [
        3
      ],
      "matrix": [
        1,
        0,
        0,
        0,
        0,
        0,
        1,
        0,
        0,
        -1,
        0,
        0,
        0,
        0,
        0,
        1
      ],
      "name": "ellora.fbx"
    },
    {
      "children": [
        4
      ],
      "name": "RootNode"
    },
    {
      "children": [
        5,
        6,
        7,
        8,
        9
      ],
      "matrix": [
        100,
        0,
        0,
        0,
        0,
        -1.6292067939183141e-05,
        -99.999999999998678,
        0,
        0,
        99.999999999998678,
        -1.6292067939183141e-05,
        0,
        0,
        0,
        0,
        1
      ],
      "name": "Retopo_Model"
    },
    {
      "mesh": 0,
      "name": "Retopo_Model_Tex_0"
    },
    {
      "mesh": 1,
      "name": "Retopo_Model_Tex_0"
    },
    {
      "mesh": 2,
      "name": "Retopo_Model_Tex_0"
    },
    {
      "mesh": 3,
      "name": "Retopo_Model_Tex_0"
    },
    {
      "mesh": 4,
      "name": "Retopo_Model_Tex_0"
    }
  ],
  "samplers": [
    {
      "magFilter": 9729,
      "minFilter": 9987,
      "wrapS": 10497,
      "wrapT": 10497
    }
  ],
  "scene": 0,
  "scenes": [
    {
      "name": "OSG_Scene",
      "nodes": [
        0
      ]
    }
  ],
  "textures": [
    {
      "sampler": 0,
      "source": 0
    }
  ]
}

