{
  "accessors": [
    {
      "bufferView": 2,
      "componentType": 5126,
      "count": 65532,
      "max": [
        26.462942123413086,
        -3.556915283203125,
        51.964828491210938
      ],
      "min": [
        -65.26055908203125,
        -54.489418029785156,
        -41.286861419677734
      ],
      "type": "VEC3"
    },
    {
      "bufferView": 2,
      "byteOffset": 786384,
      "componentType": 5126,
      "count": 65532,
      "max": [
        0.99998843669891357,
        0.99937707185745239,
        0.99995613098144531
      ],
      "min": [
        -0.99999874830245972,
        -1,
        -0.9999958872795105
      ],
      "type": "VEC3"
    },
    {
      "bufferView": 3,
      "componentType": 5126,
      "count": 65532,
      "max": [
        0.99607843160629272,
        0.99607843160629272,
        0.99607843160629272,
        1
      ],
      "min": [
        0,
        0,
        0,
        1
      ],
      "type": "VEC4"
    },
    {
      "bufferView": 1,
      "componentType": 5126,
      "count": 65532,
      "max": [
        0.66636198759078979,
        0.99991899728775024
      ],
      "min": [
        8.0999998317565769e-05,
        0.66687601804733276
      ],
      "type": "VEC2"
    },
    {
      "bufferView": 0,
      "componentType": 5125,
      "count": 215565,
      "max": [
        65531
      ],
      "min": [
        0
      ],
      "type": "SCALAR"
    },
    {
      "bufferView": 2,
      "byteOffset": 1572768,
      "componentType": 5126,
      "count": 65532,
      "max": [
        26.454248428344727,
        -3.2569084167480469,
        51.929813385009766
      ],
      "min": [
        -65.192710876464844,
        -54.486122131347656,
        -41.269123077392578
      ],
      "type": "VEC3"
    },
    {
      "bufferView": 2,
      "byteOffset": 2359152,
      "componentType": 5126,
      "count": 65532,
      "max": [
        0.9999992847442627,
        0.99997389316558838,
        0.99998879432678223
      ],
      "min": [
        -0.99999779462814331,
        -1,
        -0.99999827146530151
      ],
      "type": "VEC3"
    },
    {
      "bufferView": 3,
      "byteOffset": 1048512,
      "componentType": 5126,
      "count": 65532,
      "max": [
        0.99607843160629272,
        0.99607843160629272,
        0.99607843160629272,
        1
      ],
      "min": [
        0,
        0,
        0,
        1
      ],
      "type": "VEC4"
    },
    {
      "bufferView": 1,
      "byteOffset": 524256,
      "componentType": 5126,
      "count": 65532,
      "max": [
        0.99963301420211792,
        0.99991899728775024
      ],
      "min": [
        8.0999998317565769e-05,
        0.33363300561904907
      ],
      "type": "VEC2"
    },
    {
      "bufferView": 0,
      "byteOffset": 862260,
      "componentType": 5125,
      "count": 213762,
      "max": [
        65531
      ],
      "min": [
        0
      ],
      "type": "SCALAR"
    },
    {
      "bufferView": 2,
      "byteOffset": 3145536,
      "componentType": 5126,
      "count": 54952,
      "max": [
        26.438308715820312,
        -3.2569084167480469,
        51.900936126708984
      ],
      "min": [
        -65.204635620117188,
        -54.496204376220703,
        -41.175304412841797
      ],
      "type": "VEC3"
    },
    {
      "bufferView": 2,
      "byteOffset": 3804960,
      "componentType": 5126,
      "count": 54952,
      "max": [
        0.9999852180480957,
        0.99970161914825439,
        0.99999481439590454
      ],
      "min": [
        -0.99999600648880005,
        -0.99999606609344482,
        -0.99999827146530151
      ],
      "type": "VEC3"
    },
    {
      "bufferView": 3,
      "byteOffset": 2097024,
      "componentType": 5126,
      "count": 54952,
      "max": [
        0.99607843160629272,
        0.99607843160629272,
        0.99607843160629272,
        1
      ],
      "min": [
        0,
        0,
        0,
        1
      ],
      "type": "VEC4"
    },
    {
      "bufferView": 1,
      "byteOffset": 1048512,
      "componentType": 5126,
      "count": 54952,
      "max": [
        0.99962300062179565,
        0.66666698455810547
      ],
      "min": [
        8.0999998317565769e-05,
        0.33361798524856567
      ],
      "type": "VEC2"
    },
    {
      "bufferView": 0,
      "byteOffset": 1717308,
      "componentType": 5125,
      "count": 129453,
      "max": [
        54951
      ],
      "min": [
        0
      ],
      "type": "SCALAR"
    }
  ],
  "asset": {
    "extras": {
      "author": "dekahobby (https://sketchfab.com/dekahobby)",
      "license": "CC-BY-4.0 (http://creativecommons.org/licenses/by/4.0/)",
      "source": "https://sketchfab.com/3d-models/bajra-sandhi-monument-building-792864c8ab6a4844acd9e6ce977ee393",
      "title": "Bajra Sandhi Monument - Building"
    },
    "generator": "Sketchfab-9.0.0",
    "version": "2.0"
  },
  "bufferViews": [
    {
      "buffer": 0,
      "byteLength": 2235120,
      "byteOffset": 0,
      "name": "floatBufferViews",
      "target": 34963
    },
    {
      "buffer": 0,
      "byteLength": 1488128,
      "byteOffset": 2235120,
      "byteStride": 8,
      "name": "floatBufferViews",
      "target": 34962
    },
    {
      "buffer": 0,
      "byteLength": 4464384,
      "byteOffset": 3723248,
      "byteStride": 12,
      "name": "floatBufferViews",
      "target": 34962
    },
    {
      "buffer": 0,
      "byteLength": 2976256,
      "byteOffset": 8187632,
      "byteStride": 16,
      "name": "floatBufferViews",
      "target": 34962
    }
  ],
  "buffers": [
    {
      "byteLength": 11163888,
      "uri": "scene.bin"
    }
  ],
  "images": [
    {
      "uri": "textures/bajra_Material_u1_v1_baseColor.jpeg"
    }
  ],
  "materials": [
    {
      "doubleSided": true,
      "emissiveFactor": [
        0,
        0,
        0
      ],
      "name": "bajra_Material_u1_v1",
      "pbrMetallicRoughness": {
        "baseColorFactor": [
          1,
          1,
          1,
          1
        ],
        "baseColorTexture": {
          "index": 0,
          "texCoord": 0
        },
        "metallicFactor": 0,
        "roughnessFactor": 1
      }
    }
  ],
  "meshes": [
    {
      "primitives": [
        {
          "attributes": {
            "COLOR_0": 2,
            "NORMAL": 1,
            "POSITION": 0,
            "TEXCOORD_0": 3
          },
          "indices": 4,
          "material": 0,
          "mode": 4
        }
      ]
    },
    {
      "primitives": [
        {
          "attributes": {
            "COLOR_0": 7,
            "NORMAL": 6,
            "POSITION": 5,
            "TEXCOORD_0": 8
          },
          "indices": 9,
          "material": 0,
          "mode": 4
        }
      ]
    },
    {
      "primitives": [
        {
          "attributes": {
            "COLOR_0": 12,
            "NORMAL": 11,
            "POSITION": 10,
            "TEXCOORD_0": 13
          },
          "indices": 14,
          "material": 0,
          "mode": 4
        }
      ]
    }
  ],
  "nodes": [
    {
      "children": [
        1
      ],
      "name": "RootNode (gltf orientation matrix)",
      "rotation": [
        -0.70710678118654746,
        -0,
        -0,
        0.70710678118654757
      ]
    },
    {
      "children": [
        2
      ],
      "matrix": [
        0.51288343828223049,
        -0.0013712343539638988,
        -7.4488700712949194e-06,
        0,
        -1.6881778635951562e-05,
        -0.0035282514695309519,
        -0.51287313607614138,
        0,
        0.0013711506437628085,
        0.51287130185547269,
        -0.0035282839505219599,
        0,
        -0.015292869880795479,
        -34.465770721435547,
        -23.500469207763672,
        1
      ],
      "name": "RootNode (model correction matrix)"
    },
    {
      "children": [
        3,
        4,
        5
      ],
      "name": "bajra.obj.cleaner.materialmerger.gles"
    },
    {
      "mesh": 0,
      "name": ""
    },
    {
      "mesh": 1,
      "name": ""
    },
    {
      "mesh": 2,
      "name": ""
    }
  ],
  "samplers": [
    {
      "magFilter": 9729,
      "minFilter": 9987,
      "wrapS": 10497,
      "wrapT": 10497
    }
  ],
  "scene": 0,
  "scenes": [
    {
      "name": "OSG_Scene",
      "nodes": [
        0
      ]
    }
  ],
  "textures": [
    {
      "sampler": 0,
      "source": 0
    }
  ]
}

